<?xml version="1.0" encoding="utf-8"?>
<!-- Generator: Adobe Illustrator 21.0.2, SVG Export Plug-In . SVG Version: 6.00 Build 0)  -->
<svg version="1.1" id="Capa_1" xmlns="http://www.w3.org/2000/svg" xmlns:xlink="http://www.w3.org/1999/xlink" x="0px" y="0px"
	 viewBox="0 0 612 612" style="enable-background:new 0 0 612 612;" xml:space="preserve">
<g>
	<path d="M356.8,306L601.5,61.3c14-14,14-36.8,0-50.8c-14-14-36.7-14-50.8,0L306,255.2L61.3,10.5c-14-14-36.8-14-50.8,0
		c-14,14-14,36.7,0,50.8L255.2,306L10.5,550.7c-14,14-14,36.8,0,50.8c7,7,16.2,10.5,25.4,10.5c9.2,0,18.4-3.5,25.4-10.5L306,356.8
		l244.7,244.7c7,7,16.2,10.5,25.4,10.5c9.2,0,18.4-3.5,25.4-10.5c14-14,14-36.8,0-50.8L356.8,306z"/>
</g>
</svg>
